<svg xmlns="http://www.w3.org/2000/svg" width="24" height="24" viewBox="0 0 24 24"><title>fight_24_tiny</title><path d="M2,2V8L15,18l-3,3,3,3,3-3,3,3,3-3-3-3,3-3-3-3-3,3L8,3Z" style="fill:#013;opacity:0.5;isolation:isolate"/><path d="M2,0V6L15,16l-3,3,3,3,3-3,3,3,3-3-3-3,3-3-3-3-3,3L8,1Z" style="fill:#fff"/><path d="M16,3,6,15,3,12,1,15l3,3L0,21l3,3,3-3,3,3,3-2L9,18,22,8V2Z" style="fill:#013;opacity:0.5;isolation:isolate"/><path d="M16,1,6,13,3,10,1,13l3,3L0,19l3,3,3-3,3,3,3-2L9,16,22,6V0Z" style="fill:#fff"/></svg>