<?xml version="1.0" encoding="utf-8"?>
<!-- Generator: Adobe Illustrator 20.1.0, SVG Export Plug-In . SVG Version: 6.00 Build 0)  -->
<svg version="1.1" id="Layer_1" xmlns="http://www.w3.org/2000/svg" xmlns:xlink="http://www.w3.org/1999/xlink" x="0px" y="0px"
	 viewBox="0 0 24 24" style="enable-background:new 0 0 24 24;" xml:space="preserve">
<style type="text/css">
	.st0{opacity:0.5;fill:#001133;enable-background:new    ;}
	.st1{fill:#FFFFFF;}
</style>
<title>sword_32_tiny</title>
<path class="st0" d="M2,2l0.5,5.9l12.4,10.4l-2.7,2.8l2.9,2.5l2.7-2.7l3.4,3.1l2.8-2.9l-3.4-3.5l2.9-2.9l-2.6-2.6l-2.7,2.8L8,2.9
	L2,2z"/>
<path class="st1" d="M2,0l0.5,5.9l12.4,10.4l-2.7,2.8l2.9,2.5l2.7-2.7l3.4,3.1l2.8-2.9l-3.4-3.5l2.9-2.9l-2.6-2.6l-2.7,2.8L8,0.9
	L2,0z"/>
<title>sword_32_tiny</title>
<path class="st0" d="M16,2.9l-10.2,12l-2.7-2.8l-2.6,2.6l2.9,2.9L0,21.1L2.8,24l3.4-3.1l2.7,2.7l2.9-2.5l-2.7-2.8L21.5,7.9L22,2
	L16,2.9z"/>
<path class="st1" d="M16,0.9l-10.2,12l-2.7-2.8l-2.6,2.6l2.9,2.9L0,19.1L2.8,22l3.4-3.1l2.7,2.7l2.9-2.5l-2.7-2.8L21.5,5.9L22,0
	L16,0.9z"/>
</svg>
